<svg xmlns="http://www.w3.org/2000/svg" xmlns:xlink="http://www.w3.org/1999/xlink" width="220" zoomAndPan="magnify" viewBox="0 0 165 67.499998" height="90" preserveAspectRatio="xMidYMid meet" version="1.0"><defs><g/><clipPath id="c21265b96a"><path d="M 0.605469 0 L 164.390625 0 L 164.390625 67.003906 L 0.605469 67.003906 Z M 0.605469 0 " clip-rule="nonzero"/></clipPath></defs><g clip-path="url(#c21265b96a)"><path fill="#ffffff" d="M 0.605469 0 L 164.394531 0 L 164.394531 74.449219 L 0.605469 74.449219 Z M 0.605469 0 " fill-opacity="1" fill-rule="nonzero"/><path fill="#ffffff" d="M 0.605469 0 L 164.394531 0 L 164.394531 67.003906 L 0.605469 67.003906 Z M 0.605469 0 " fill-opacity="1" fill-rule="nonzero"/><path fill="#ffffff" d="M 0.605469 0 L 164.394531 0 L 164.394531 67.003906 L 0.605469 67.003906 Z M 0.605469 0 " fill-opacity="1" fill-rule="nonzero"/></g><g fill="#000000" fill-opacity="1"><g transform="translate(7.612418, 39.844314)"><g><path d="M 13.875 0 L 10.859375 0 L 9.78125 -3.328125 L 4.234375 -3.328125 L 3.15625 0 L 0.21875 0 L 5.203125 -14.453125 L 8.875 -14.453125 Z M 6.875 -11.4375 L 5.015625 -5.734375 L 8.984375 -5.734375 L 7.125 -11.4375 Z M 6.875 -11.4375 "/></g></g></g><g fill="#000000" fill-opacity="1"><g transform="translate(21.697658, 39.844314)"><g><path d="M 4.53125 0.203125 C 3.550781 0.203125 2.800781 -0.0625 2.28125 -0.59375 C 1.757812 -1.125 1.5 -1.925781 1.5 -3 L 1.5 -15.28125 L 4.234375 -15.28125 L 4.234375 -3.109375 C 4.234375 -2.441406 4.515625 -2.109375 5.078125 -2.109375 C 5.234375 -2.109375 5.398438 -2.132812 5.578125 -2.1875 L 5.71875 -2.15625 L 5.96875 -0.046875 C 5.8125 0.0234375 5.609375 0.0820312 5.359375 0.125 C 5.109375 0.175781 4.832031 0.203125 4.53125 0.203125 Z M 4.53125 0.203125 "/></g></g></g><g fill="#000000" fill-opacity="1"><g transform="translate(27.964354, 39.844314)"><g><path d="M 1.578125 0 L 1.578125 -15.28125 L 4.3125 -15.28125 L 4.3125 -9.484375 L 4.515625 -9.4375 C 4.878906 -9.976562 5.320312 -10.390625 5.84375 -10.671875 C 6.375 -10.960938 7.015625 -11.109375 7.765625 -11.109375 C 10.171875 -11.109375 11.375 -9.742188 11.375 -7.015625 L 11.375 0 L 8.625 0 L 8.625 -6.671875 C 8.625 -7.421875 8.472656 -7.960938 8.171875 -8.296875 C 7.878906 -8.628906 7.421875 -8.796875 6.796875 -8.796875 C 6.035156 -8.796875 5.429688 -8.539062 4.984375 -8.03125 C 4.535156 -7.519531 4.3125 -6.722656 4.3125 -5.640625 L 4.3125 0 Z M 1.578125 0 "/></g></g></g><g fill="#000000" fill-opacity="1"><g transform="translate(40.734971, 39.844314)"><g><path d="M 4.25 0.203125 C 3.550781 0.203125 2.941406 0.078125 2.421875 -0.171875 C 1.910156 -0.429688 1.515625 -0.8125 1.234375 -1.3125 C 0.960938 -1.8125 0.828125 -2.410156 0.828125 -3.109375 C 0.828125 -3.753906 0.960938 -4.296875 1.234375 -4.734375 C 1.515625 -5.171875 1.945312 -5.53125 2.53125 -5.8125 C 3.113281 -6.09375 3.875 -6.304688 4.8125 -6.453125 C 5.457031 -6.554688 5.945312 -6.671875 6.28125 -6.796875 C 6.625 -6.921875 6.851562 -7.0625 6.96875 -7.21875 C 7.09375 -7.382812 7.15625 -7.585938 7.15625 -7.828125 C 7.15625 -8.179688 7.03125 -8.445312 6.78125 -8.625 C 6.539062 -8.8125 6.140625 -8.90625 5.578125 -8.90625 C 4.972656 -8.90625 4.394531 -8.769531 3.84375 -8.5 C 3.300781 -8.226562 2.828125 -7.875 2.421875 -7.4375 L 2.21875 -7.4375 L 1.078125 -9.171875 C 1.628906 -9.773438 2.300781 -10.25 3.09375 -10.59375 C 3.894531 -10.9375 4.769531 -11.109375 5.71875 -11.109375 C 7.15625 -11.109375 8.195312 -10.800781 8.84375 -10.1875 C 9.488281 -9.582031 9.8125 -8.710938 9.8125 -7.578125 L 9.8125 -2.84375 C 9.8125 -2.351562 10.03125 -2.109375 10.46875 -2.109375 C 10.625 -2.109375 10.785156 -2.140625 10.953125 -2.203125 L 11.078125 -2.171875 L 11.28125 -0.25 C 11.125 -0.15625 10.910156 -0.078125 10.640625 -0.015625 C 10.378906 0.046875 10.085938 0.078125 9.765625 0.078125 C 9.109375 0.078125 8.597656 -0.046875 8.234375 -0.296875 C 7.867188 -0.546875 7.609375 -0.9375 7.453125 -1.46875 L 7.234375 -1.5 C 6.703125 -0.363281 5.707031 0.203125 4.25 0.203125 Z M 5.125 -1.84375 C 5.757812 -1.84375 6.265625 -2.050781 6.640625 -2.46875 C 7.015625 -2.894531 7.203125 -3.488281 7.203125 -4.25 L 7.203125 -5.359375 L 7.015625 -5.40625 C 6.847656 -5.269531 6.628906 -5.15625 6.359375 -5.0625 C 6.097656 -4.976562 5.71875 -4.894531 5.21875 -4.8125 C 4.625 -4.707031 4.195312 -4.535156 3.9375 -4.296875 C 3.675781 -4.054688 3.546875 -3.710938 3.546875 -3.265625 C 3.546875 -2.804688 3.679688 -2.453125 3.953125 -2.203125 C 4.234375 -1.960938 4.625 -1.84375 5.125 -1.84375 Z M 5.125 -1.84375 "/></g></g></g><g fill="#000000" fill-opacity="1"><g transform="translate(52.230503, 39.844314)"><g><path d="M 1.578125 0 L 1.578125 -10.90625 L 4.203125 -10.90625 L 4.203125 -9.4375 L 4.40625 -9.40625 C 4.757812 -9.988281 5.175781 -10.414062 5.65625 -10.6875 C 6.132812 -10.96875 6.75 -11.109375 7.5 -11.109375 C 8.320312 -11.109375 8.984375 -10.945312 9.484375 -10.625 C 9.984375 -10.300781 10.347656 -9.828125 10.578125 -9.203125 L 10.78125 -9.203125 C 11.125 -9.847656 11.5625 -10.328125 12.09375 -10.640625 C 12.625 -10.953125 13.28125 -11.109375 14.0625 -11.109375 C 16.332031 -11.109375 17.46875 -9.851562 17.46875 -7.34375 L 17.46875 0 L 14.71875 0 L 14.71875 -6.984375 C 14.71875 -7.628906 14.59375 -8.09375 14.34375 -8.375 C 14.09375 -8.65625 13.691406 -8.796875 13.140625 -8.796875 C 11.640625 -8.796875 10.890625 -7.789062 10.890625 -5.78125 L 10.890625 0 L 8.140625 0 L 8.140625 -6.984375 C 8.140625 -7.628906 8.015625 -8.09375 7.765625 -8.375 C 7.515625 -8.65625 7.113281 -8.796875 6.5625 -8.796875 C 5.851562 -8.796875 5.300781 -8.5625 4.90625 -8.09375 C 4.507812 -7.625 4.3125 -6.875 4.3125 -5.84375 L 4.3125 0 Z M 1.578125 0 "/></g></g></g><g fill="#000000" fill-opacity="1"><g transform="translate(71.089898, 39.844314)"><g><path d="M 5.390625 0.203125 C 4.523438 0.203125 3.757812 -0.00390625 3.09375 -0.421875 C 2.4375 -0.835938 1.921875 -1.46875 1.546875 -2.3125 C 1.171875 -3.164062 0.984375 -4.210938 0.984375 -5.453125 C 0.984375 -6.691406 1.175781 -7.734375 1.5625 -8.578125 C 1.945312 -9.429688 2.476562 -10.066406 3.15625 -10.484375 C 3.84375 -10.898438 4.632812 -11.109375 5.53125 -11.109375 C 6.207031 -11.109375 6.789062 -10.988281 7.28125 -10.75 C 7.78125 -10.519531 8.203125 -10.160156 8.546875 -9.671875 L 8.765625 -9.71875 L 8.765625 -15.28125 L 11.5 -15.28125 L 11.5 0 L 8.765625 0 L 8.765625 -1.40625 L 8.546875 -1.453125 C 8.242188 -0.941406 7.828125 -0.535156 7.296875 -0.234375 C 6.773438 0.0546875 6.140625 0.203125 5.390625 0.203125 Z M 6.28125 -2.109375 C 7.050781 -2.109375 7.660156 -2.382812 8.109375 -2.9375 C 8.554688 -3.488281 8.78125 -4.328125 8.78125 -5.453125 C 8.78125 -6.566406 8.554688 -7.398438 8.109375 -7.953125 C 7.660156 -8.515625 7.050781 -8.796875 6.28125 -8.796875 C 5.476562 -8.796875 4.863281 -8.523438 4.4375 -7.984375 C 4.007812 -7.441406 3.796875 -6.597656 3.796875 -5.453125 C 3.796875 -4.304688 4.007812 -3.460938 4.4375 -2.921875 C 4.863281 -2.378906 5.476562 -2.109375 6.28125 -2.109375 Z M 6.28125 -2.109375 "/></g></g></g><g fill="#ff2020" fill-opacity="1"><g transform="translate(87.565077, 41.14721)"><g><path d="M 11.59375 -14.46875 L 11.59375 -12.0625 L 7.421875 -12.0625 L 7.421875 0 L 4.578125 0 L 4.578125 -12.0625 L 0.390625 -12.0625 L 0.390625 -14.46875 Z M 11.59375 -14.46875 "/></g></g></g><g fill="#ff2020" fill-opacity="1"><g transform="translate(99.550036, 41.14721)"><g><path d="M 1.578125 0 L 1.578125 -10.921875 L 4.234375 -10.921875 L 4.234375 -9.296875 L 4.4375 -9.25 C 4.707031 -9.851562 5.054688 -10.296875 5.484375 -10.578125 C 5.910156 -10.867188 6.429688 -11.015625 7.046875 -11.015625 C 7.660156 -11.015625 8.128906 -10.910156 8.453125 -10.703125 L 8 -8.328125 L 7.78125 -8.296875 C 7.601562 -8.367188 7.429688 -8.421875 7.265625 -8.453125 C 7.109375 -8.484375 6.910156 -8.5 6.671875 -8.5 C 5.898438 -8.5 5.3125 -8.226562 4.90625 -7.6875 C 4.507812 -7.15625 4.3125 -6.296875 4.3125 -5.109375 L 4.3125 0 Z M 1.578125 0 "/></g></g></g><g fill="#ff2020" fill-opacity="1"><g transform="translate(108.103664, 41.14721)"><g><path d="M 4.25 0.203125 C 3.550781 0.203125 2.941406 0.078125 2.421875 -0.171875 C 1.910156 -0.429688 1.515625 -0.8125 1.234375 -1.3125 C 0.960938 -1.8125 0.828125 -2.410156 0.828125 -3.109375 C 0.828125 -3.753906 0.960938 -4.296875 1.234375 -4.734375 C 1.515625 -5.171875 1.945312 -5.53125 2.53125 -5.8125 C 3.113281 -6.09375 3.875 -6.3125 4.8125 -6.46875 C 5.457031 -6.570312 5.953125 -6.6875 6.296875 -6.8125 C 6.640625 -6.9375 6.867188 -7.078125 6.984375 -7.234375 C 7.109375 -7.390625 7.171875 -7.59375 7.171875 -7.84375 C 7.171875 -8.1875 7.046875 -8.453125 6.796875 -8.640625 C 6.554688 -8.828125 6.148438 -8.921875 5.578125 -8.921875 C 4.972656 -8.921875 4.394531 -8.785156 3.84375 -8.515625 C 3.300781 -8.242188 2.828125 -7.882812 2.421875 -7.4375 L 2.21875 -7.4375 L 1.078125 -9.171875 C 1.628906 -9.785156 2.300781 -10.265625 3.09375 -10.609375 C 3.894531 -10.953125 4.769531 -11.125 5.71875 -11.125 C 7.164062 -11.125 8.210938 -10.816406 8.859375 -10.203125 C 9.503906 -9.585938 9.828125 -8.71875 9.828125 -7.59375 L 9.828125 -2.84375 C 9.828125 -2.363281 10.039062 -2.125 10.46875 -2.125 C 10.632812 -2.125 10.796875 -2.148438 10.953125 -2.203125 L 11.09375 -2.171875 L 11.296875 -0.25 C 11.140625 -0.15625 10.925781 -0.078125 10.65625 -0.015625 C 10.382812 0.046875 10.085938 0.078125 9.765625 0.078125 C 9.109375 0.078125 8.597656 -0.046875 8.234375 -0.296875 C 7.867188 -0.546875 7.609375 -0.9375 7.453125 -1.46875 L 7.25 -1.5 C 6.707031 -0.363281 5.707031 0.203125 4.25 0.203125 Z M 5.125 -1.84375 C 5.757812 -1.84375 6.265625 -2.050781 6.640625 -2.46875 C 7.023438 -2.894531 7.21875 -3.488281 7.21875 -4.25 L 7.21875 -5.359375 L 7.03125 -5.40625 C 6.863281 -5.269531 6.644531 -5.15625 6.375 -5.0625 C 6.113281 -4.976562 5.726562 -4.894531 5.21875 -4.8125 C 4.625 -4.707031 4.195312 -4.535156 3.9375 -4.296875 C 3.675781 -4.054688 3.546875 -3.71875 3.546875 -3.28125 C 3.546875 -2.8125 3.6875 -2.453125 3.96875 -2.203125 C 4.25 -1.960938 4.632812 -1.84375 5.125 -1.84375 Z M 5.125 -1.84375 "/></g></g></g><g fill="#ff2020" fill-opacity="1"><g transform="translate(119.604089, 41.14721)"><g><path d="M 5.390625 0.203125 C 4.523438 0.203125 3.757812 -0.00390625 3.09375 -0.421875 C 2.4375 -0.835938 1.921875 -1.46875 1.546875 -2.3125 C 1.171875 -3.164062 0.984375 -4.210938 0.984375 -5.453125 C 0.984375 -6.703125 1.175781 -7.75 1.5625 -8.59375 C 1.945312 -9.4375 2.476562 -10.066406 3.15625 -10.484375 C 3.84375 -10.910156 4.632812 -11.125 5.53125 -11.125 C 6.207031 -11.125 6.796875 -11.003906 7.296875 -10.765625 C 7.796875 -10.535156 8.21875 -10.171875 8.5625 -9.671875 L 8.765625 -9.734375 L 8.765625 -15.296875 L 11.515625 -15.296875 L 11.515625 0 L 8.765625 0 L 8.765625 -1.421875 L 8.5625 -1.453125 C 8.257812 -0.941406 7.84375 -0.535156 7.3125 -0.234375 C 6.78125 0.0546875 6.140625 0.203125 5.390625 0.203125 Z M 6.28125 -2.125 C 7.050781 -2.125 7.660156 -2.394531 8.109375 -2.9375 C 8.554688 -3.488281 8.78125 -4.328125 8.78125 -5.453125 C 8.78125 -6.578125 8.554688 -7.414062 8.109375 -7.96875 C 7.660156 -8.519531 7.050781 -8.796875 6.28125 -8.796875 C 5.476562 -8.796875 4.863281 -8.523438 4.4375 -7.984375 C 4.007812 -7.453125 3.796875 -6.609375 3.796875 -5.453125 C 3.796875 -4.304688 4.007812 -3.460938 4.4375 -2.921875 C 4.863281 -2.390625 5.476562 -2.125 6.28125 -2.125 Z M 6.28125 -2.125 "/></g></g></g><g fill="#ff2020" fill-opacity="1"><g transform="translate(132.676792, 41.14721)"><g><path d="M 10.78125 -4.84375 L 3.765625 -4.84375 C 3.847656 -3.882812 4.117188 -3.191406 4.578125 -2.765625 C 5.046875 -2.335938 5.675781 -2.125 6.46875 -2.125 C 7.09375 -2.125 7.597656 -2.238281 7.984375 -2.46875 C 8.378906 -2.695312 8.695312 -3.050781 8.9375 -3.53125 L 9.140625 -3.53125 L 10.96875 -2.359375 C 10.601562 -1.597656 10.0625 -0.976562 9.34375 -0.5 C 8.625 -0.03125 7.664062 0.203125 6.46875 0.203125 C 5.34375 0.203125 4.367188 -0.0078125 3.546875 -0.4375 C 2.722656 -0.863281 2.085938 -1.5 1.640625 -2.34375 C 1.203125 -3.195312 0.984375 -4.234375 0.984375 -5.453125 C 0.984375 -6.691406 1.21875 -7.734375 1.6875 -8.578125 C 2.15625 -9.429688 2.785156 -10.066406 3.578125 -10.484375 C 4.378906 -10.910156 5.28125 -11.125 6.28125 -11.125 C 7.820312 -11.125 9 -10.710938 9.8125 -9.890625 C 10.632812 -9.078125 11.046875 -7.878906 11.046875 -6.296875 C 11.046875 -5.722656 11.03125 -5.273438 11 -4.953125 Z M 8.4375 -6.609375 C 8.40625 -7.441406 8.207031 -8.046875 7.84375 -8.421875 C 7.488281 -8.804688 6.96875 -9 6.28125 -9 C 4.894531 -9 4.078125 -8.203125 3.828125 -6.609375 Z M 8.4375 -6.609375 "/></g></g></g><g fill="#ff2020" fill-opacity="1"><g transform="translate(144.533206, 41.14721)"><g><path d="M 1.578125 0 L 1.578125 -10.921875 L 4.234375 -10.921875 L 4.234375 -9.296875 L 4.4375 -9.25 C 4.707031 -9.851562 5.054688 -10.296875 5.484375 -10.578125 C 5.910156 -10.867188 6.429688 -11.015625 7.046875 -11.015625 C 7.660156 -11.015625 8.128906 -10.910156 8.453125 -10.703125 L 8 -8.328125 L 7.78125 -8.296875 C 7.601562 -8.367188 7.429688 -8.421875 7.265625 -8.453125 C 7.109375 -8.484375 6.910156 -8.5 6.671875 -8.5 C 5.898438 -8.5 5.3125 -8.226562 4.90625 -7.6875 C 4.507812 -7.15625 4.3125 -6.296875 4.3125 -5.109375 L 4.3125 0 Z M 1.578125 0 "/></g></g></g><g fill="#ff2020" fill-opacity="1"><g transform="translate(153.086834, 41.14721)"><g><path d="M 5.109375 0.203125 C 4.359375 0.203125 3.671875 0.117188 3.046875 -0.046875 C 2.429688 -0.222656 1.90625 -0.460938 1.46875 -0.765625 C 1.03125 -1.078125 0.707031 -1.429688 0.5 -1.828125 L 2.015625 -3.46875 L 2.21875 -3.46875 C 2.582031 -2.976562 3.007812 -2.613281 3.5 -2.375 C 4 -2.132812 4.539062 -2.015625 5.125 -2.015625 C 5.65625 -2.015625 6.054688 -2.109375 6.328125 -2.296875 C 6.597656 -2.484375 6.734375 -2.753906 6.734375 -3.109375 C 6.734375 -3.390625 6.632812 -3.625 6.4375 -3.8125 C 6.25 -4 5.9375 -4.144531 5.5 -4.25 L 4.0625 -4.59375 C 2.976562 -4.851562 2.1875 -5.25 1.6875 -5.78125 C 1.1875 -6.3125 0.9375 -6.988281 0.9375 -7.8125 C 0.9375 -8.488281 1.109375 -9.078125 1.453125 -9.578125 C 1.804688 -10.078125 2.296875 -10.457031 2.921875 -10.71875 C 3.554688 -10.988281 4.289062 -11.125 5.125 -11.125 C 6.101562 -11.125 6.914062 -10.976562 7.5625 -10.6875 C 8.21875 -10.40625 8.722656 -10.03125 9.078125 -9.5625 L 7.625 -7.96875 L 7.421875 -7.96875 C 7.117188 -8.3125 6.773438 -8.5625 6.390625 -8.71875 C 6.015625 -8.882812 5.59375 -8.96875 5.125 -8.96875 C 4.039062 -8.96875 3.5 -8.628906 3.5 -7.953125 C 3.5 -7.671875 3.597656 -7.441406 3.796875 -7.265625 C 4.003906 -7.085938 4.363281 -6.941406 4.875 -6.828125 L 6.21875 -6.53125 C 7.320312 -6.289062 8.128906 -5.90625 8.640625 -5.375 C 9.148438 -4.851562 9.40625 -4.15625 9.40625 -3.28125 C 9.40625 -2.582031 9.234375 -1.96875 8.890625 -1.4375 C 8.546875 -0.914062 8.050781 -0.507812 7.40625 -0.21875 C 6.757812 0.0625 5.992188 0.203125 5.109375 0.203125 Z M 5.109375 0.203125 "/></g></g></g></svg>